# xmcd
#
# Track frame offsets:
#	150
#	15429
#	30810
#	46028
#	60114
#	73096
#	84915
#	96374
#	108370
#	123112
#	136162
#	150230
#	162774
#	174932
#	189287
#
# Disc length: 2681 seconds
#
# Revision: 0
# Processed by: cddbd v1.5.2PL0 Copyright (c) Steve Scherf et al.
# Submitted via: EasyCDDAExtractor 10.2.0.1
#
DISCID=980a770f
DTITLE=Irmãos Lírio e Pedrinho do Acordeon - Volume 1
DYEAR=2008
DGENRE=Sertanejo
TTITLE0=Quem não sabe nadar
TTITLE1=Gabriela
TTITLE2=Telefone mudo
TTITLE3=Brinco de ouro
TTITLE4=Sincero amor
TTITLE5=Quebra tupete
TTITLE6=Moreninha linda
TTITLE7=Macaco velho
TTITLE8=Poeira da estrada
TTITLE9=Sem favor ninguém vive
TTITLE10=Boi tufão
TTITLE11=Fio de Cabelo
TTITLE12=Anel de noivado
TTITLE13=Noite maravilhosa
TTITLE14=Sai do canto
EXTD=
EXTT0=
EXTT1=
EXTT2=
EXTT3=
EXTT4=
EXTT5=
EXTT6=
EXTT7=
EXTT8=
EXTT9=
EXTT10=
EXTT11=
EXTT12=
EXTT13=
EXTT14=
PLAYORDER=
